Jump_normalized_Motion_pl08
version=1
nRows=20
nColumns=43
inDegrees=yes
endheader
time		pelvis_tilt		pelvis_list		pelvis_rotation		pelvis_tx		pelvis_ty		pelvis_tz		hip_flexion_r		hip_adduction_r		hip_rotation_r		knee_angle_r		ankle_angle_r		subtalar_angle_r		mtp_angle_r		hip_flexion_l		hip_adduction_l		hip_rotation_l		knee_angle_l		ankle_angle_l		subtalar_angle_l		mtp_angle_l		lumbar_extension		lumbar_bending		lumbar_rotation		neck_flexion		neck_lateral_bending		neck_rotation		arm_flex_r		arm_add_r		arm_rot_r		elbow_flex_r		pro_sup_r		wrist_flex_r		wrist_dev_r		hand_finger_flex_r		arm_flex_l		arm_add_l		arm_rot_l		elbow_flex_l		pro_sup_l		wrist_flex_l		wrist_dev_l		hand_finger_flex_l		
1.206667		-2.039900		-19.571342		95.111214		0.006202		1.780246		1.799201		72.182903		-6.755084		8.731870		-131.303590		27.234276		-7.177370		-1.089500		73.050485		0.220831		7.245538		-128.087204		30.242898		-19.483077		-0.758856		-46.518094		0.781458		-2.295381		35.476912		1.177598		-3.557709		106.467987		-17.311425		32.531904		63.005037		66.477200		-34.963163		7.285309		42.794863		106.881166		-9.373373		21.880553		71.706729		108.377310		-19.200869		21.833736		87.717189		
1.209444		-1.875338		-19.865690		95.131186		0.006221		1.781267		1.796348		71.978217		-6.694337		8.478231		-131.011462		27.239430		-7.209975		-1.186299		72.934989		0.118686		7.358978		-127.893590		30.217727		-19.548130		-0.731184		-46.212066		0.864822		-2.213494		35.570562		1.173558		-3.533763		107.533448		-17.014997		32.723179		62.903679		66.537098		-34.902739		6.935617		42.754427		108.014540		-9.206206		22.067358		71.424471		108.303563		-19.396133		21.705662		87.695902		
1.212222		-1.823847		-20.201473		95.112620		0.006075		1.782295		1.793165		71.808082		-6.711342		8.373392		-130.727033		27.222904		-7.197375		-1.214185		72.794895		0.073693		7.341635		-127.685530		30.204058		-19.543770		-0.722740		-45.838175		0.873265		-2.205402		35.401315		1.174177		-3.528813		108.345466		-16.738050		32.612872		63.087903		66.562745		-34.891684		6.789401		42.739060		108.858043		-9.027562		21.966740		71.471744		108.307438		-19.486311		21.634077		87.672227		
1.215000		-1.588717		-20.305945		95.164479		0.006227		1.783731		1.790156		71.354235		-6.574622		8.026075		-130.390049		27.168463		-7.263608		-1.399478		72.469605		-0.097275		7.549941		-127.469765		30.122000		-19.591827		-0.650009		-45.738278		1.009189		-2.106665		35.458924		1.276154		-3.462668		109.611149		-16.489152		33.160077		62.744404		66.717686		-34.672180		6.263898		42.724235		110.194499		-9.062574		22.596249		71.083326		108.485328		-19.826762		21.361895		87.631345		
1.217778		-1.528608		-20.621917		95.151900		0.006054		1.784847		1.787011		71.158217		-6.601429		7.904683		-130.081755		27.166083		-7.277729		-1.455851		72.307609		-0.149312		7.544767		-127.244296		30.139323		-19.592796		-0.616848		-45.394358		1.035651		-2.084705		35.482594		1.224802		-3.433107		110.491246		-16.132798		33.045609		62.730313		66.725355		-34.658385		6.066474		42.696552		111.135303		-8.830999		22.512254		70.910922		108.545958		-20.004638		21.263039		87.593375		
1.220556		-1.461759		-20.846923		95.137956		0.005859		1.786195		1.783591		70.825277		-6.605261		7.770967		-129.752287		27.134409		-7.296470		-1.538638		72.016069		-0.214133		7.544214		-127.009802		30.115418		-19.577581		-0.563446		-45.136274		1.070791		-2.056423		35.331476		1.232683		-3.402611		111.362523		-15.870540		33.044677		62.789079		66.734241		-34.567564		5.795982		42.695747		112.006209		-8.710447		22.534600		70.913359		108.666670		-20.236613		21.097243		87.587203		
1.223333		-1.306643		-20.806818		95.160253		0.005801		1.788068		1.780138		70.156262		-6.541881		7.485395		-129.372848		27.101477		-7.416487		-1.781720		71.445327		-0.350891		7.657882		-126.747550		30.091933		-19.573575		-0.391839		-45.200009		1.194112		-1.978993		35.400039		1.220613		-3.300421		112.520667		-15.560297		33.358474		62.461933		66.708615		-34.295450		5.131104		42.707657		113.148165		-8.671349		22.888499		70.639658		108.996136		-20.869763		20.691525		87.619167		
1.226111		-1.275351		-21.160533		95.136076		0.005642		1.789159		1.776772		69.986491		-6.562760		7.418296		-129.056299		27.060063		-7.379880		-1.808435		71.287670		-0.400085		7.625224		-126.493079		30.070129		-19.552680		-0.374925		-44.774429		1.179187		-1.971380		35.260740		1.233861		-3.308849		113.336676		-15.270940		33.298365		62.465658		66.728782		-34.290184		5.059884		42.680981		113.988089		-8.469826		22.875500		70.516767		109.060228		-20.938153		20.642494		87.596488		
1.228889		-1.235338		-21.451178		95.102484		0.005601		1.790314		1.773483		69.759767		-6.548868		7.332872		-128.752991		26.993199		-7.339628		-1.861511		71.091557		-0.476498		7.615241		-126.248304		30.031884		-19.523256		-0.333094		-44.426946		1.157254		-1.949142		35.210508		1.256355		-3.310212		114.302610		-14.961608		33.409440		62.252623		66.769531		-34.244000		4.948574		42.642229		115.001380		-8.293295		23.054623		70.189208		109.205093		-21.047670		20.563593		87.571782		
1.231667		-1.214357		-21.743652		95.051264		0.005448		1.791557		1.769853		69.493421		-6.571105		7.257016		-128.419548		26.934082		-7.305560		-1.896575		70.854328		-0.525533		7.593193		-126.015325		29.982868		-19.486063		-0.308603		-44.059721		1.129005		-1.919037		35.018981		1.278300		-3.308597		115.089852		-14.731485		33.406005		62.303301		66.799458		-34.206668		4.826621		42.623841		115.789333		-8.166918		23.081635		70.171112		109.282185		-21.134069		20.489178		87.560190		
1.234444		-1.189132		-21.756064		94.971537		0.005485		1.793376		1.766039		68.895575		-6.515404		7.157950		-128.052321		26.826816		-7.298859		-2.016063		70.282469		-0.661437		7.589354		-125.738605		29.891352		-19.392309		-0.185927		-44.027982		1.096550		-1.872864		34.929849		1.302530		-3.278048		116.105396		-14.501025		33.717421		62.075648		66.867319		-34.081757		4.408060		42.566927		116.793024		-8.131909		23.402748		69.971794		109.477756		-21.425233		20.307955		87.572061		
1.237222		-1.181162		-22.005280		94.904702		0.005297		1.794715		1.762164		68.564071		-6.556912		7.077746		-127.692979		26.771008		-7.276867		-2.059911		69.953875		-0.715905		7.563491		-125.497193		29.841975		-19.344959		-0.146090		-43.694609		1.067064		-1.836886		34.760138		1.304965		-3.268196		116.819677		-14.265448		33.699887		62.149822		66.890789		-34.052203		4.224847		42.540184		117.508648		-8.010045		23.389614		69.974894		109.536452		-21.549937		20.228207		87.565360		
1.240000		-1.172909		-22.346557		94.858926		0.005097		1.796042		1.758290		68.329029		-6.609947		7.008375		-127.320382		26.720828		-7.241584		-2.076920		69.725430		-0.752943		7.516232		-125.205464		29.792363		-19.304005		-0.139244		-43.254959		1.037171		-1.822275		34.569645		1.290499		-3.265237		117.448962		-14.041040		33.571196		62.271094		66.907441		-34.065806		4.137156		42.518656		118.154745		-7.853630		23.271847		69.989115		109.557874		-21.608621		20.190276		87.544307		
1.242778		-1.225284		-22.204211		94.722380		0.005136		1.798127		1.754271		67.590982		-6.562423		6.986228		-126.969385		26.484211		-7.231193		-2.258254		68.972799		-0.880494		7.449924		-124.916248		29.616723		-19.136796		0.049520		-43.389164		0.935508		-1.790589		34.539350		1.307319		-3.248371		118.489879		-13.763200		33.918733		61.842450		67.072781		-34.082083		3.636536		42.389045		119.256982		-7.751379		23.633004		69.533649		109.806941		-21.974890		20.008421		87.546841		
1.245556		-1.221636		-22.537475		94.660111		0.004817		1.799352		1.750178		67.346453		-6.643513		6.912585		-126.597508		26.433218		-7.197888		-2.275025		68.719456		-0.909706		7.401771		-124.662835		29.570115		-19.102161		0.057496		-42.925738		0.910470		-1.756790		34.342772		1.296555		-3.243688		119.026484		-13.555242		33.792168		62.012588		67.083670		-34.092431		3.557918		42.375913		119.818167		-7.612932		23.505619		69.597363		109.814402		-22.028756		19.971622		87.533675		
1.248333		-1.221431		-22.789173		94.607146		0.004640		1.800727		1.746126		67.031135		-6.682479		6.847503		-126.242340		26.285407		-7.145133		-2.319495		68.407263		-0.967829		7.349079		-124.381490		29.454344		-19.028456		0.086608		-42.555412		0.874197		-1.716119		34.161635		1.261385		-3.230692		119.652594		-13.328048		33.737718		61.995989		67.136887		-34.133475		3.457146		42.338383		120.506690		-7.418672		23.465361		69.442043		109.857341		-22.117161		19.928939		87.508149		
1.251111		-1.221382		-22.954588		94.541454		0.004509		1.802203		1.742028		66.641012		-6.698819		6.789301		-125.900643		26.059240		-7.082684		-2.388880		68.016308		-1.042222		7.305510		-124.114763		29.285330		-18.925366		0.138979		-42.273417		0.829310		-1.656048		33.980961		1.226116		-3.216215		120.335886		-13.095261		33.754187		61.864981		67.228968		-34.194294		3.327965		42.285267		121.265853		-7.203884		23.495330		69.152057		109.922535		-22.240107		19.874524		87.479582		
1.253889		-1.161881		-22.823369		94.468621		0.004494		1.804362		1.737328		65.826174		-6.629770		6.626001		-125.463578		25.826241		-7.131349		-2.510278		67.219429		-1.215347		7.310388		-123.793388		29.138564		-18.799201		0.353034		-42.325368		0.821121		-1.514834		33.818091		1.256611		-3.243675		121.025676		-12.987825		33.929469		61.864208		67.452649		-34.276236		3.014396		42.254394		121.950966		-7.063092		23.569422		69.067774		109.878991		-22.552367		19.691216		87.522725		
1.256667		-1.110611		-22.791192		94.413026		0.004460		1.806278		1.732674		65.129811		-6.589973		6.479490		-125.035329		25.624655		-7.157456		-2.609502		66.550156		-1.361256		7.314484		-123.490811		29.004600		-18.687956		0.526010		-42.251031		0.812105		-1.398284		33.637859		1.266009		-3.261721		121.653455		-12.857583		34.037175		61.875664		67.624320		-34.345523		2.765841		42.229833		122.585549		-6.908742		23.609353		68.988817		109.835990		-22.806361		19.545240		87.555884		
1.259444		-1.090734		-23.086778		94.398543		0.004327		1.807586		1.728249		64.830186		-6.624344		6.392619		-124.650331		25.506213		-7.095320		-2.632025		66.273669		-1.418905		7.282908		-123.188429		28.892975		-18.618715		0.535873		-41.778620		0.793896		-1.371783		33.373860		1.255805		-3.259098		122.106950		-12.684352		33.952846		61.970790		67.643006		-34.358051		2.720977		42.222678		123.062928		-6.751471		23.533741		69.008943		109.821476		-22.847297		19.518867		87.548596		
